<?xml version="1.0" encoding="UTF-8" standalone="no"?>
<svg
   width="40"
   height="40"
   viewBox="0 0 256 256"
   fill="none"
   version="1.1"
   id="svg5"
   sodipodi:docname="pluginIcon.svg"
   xml:space="preserve"
   inkscape:version="1.3.2 (091e20e, 2023-11-25, custom)"
   xmlns:inkscape="http://www.inkscape.org/namespaces/inkscape"
   xmlns:sodipodi="http://sodipodi.sourceforge.net/DTD/sodipodi-0.dtd"
   xmlns="http://www.w3.org/2000/svg"
   xmlns:svg="http://www.w3.org/2000/svg"><sodipodi:namedview
     id="namedview1"
     pagecolor="#ffffff"
     bordercolor="#111111"
     borderopacity="1"
     inkscape:showpageshadow="0"
     inkscape:pageopacity="0"
     inkscape:pagecheckerboard="1"
     inkscape:deskcolor="#d1d1d1"
     inkscape:zoom="21.16017"
     inkscape:cx="23.156713"
     inkscape:cy="23.133084"
     inkscape:window-width="2560"
     inkscape:window-height="1411"
     inkscape:window-x="-9"
     inkscape:window-y="-9"
     inkscape:window-maximized="1"
     inkscape:current-layer="svg5" /><defs
     id="defs5"><clipPath
       clipPathUnits="userSpaceOnUse"
       id="clipPath6"><g
         id="g7"><rect
           width="256"
           height="256"
           fill="#ffffff"
           id="rect6"
           x="0"
           y="0" /></g></clipPath><clipPath
       clipPathUnits="userSpaceOnUse"
       id="clipPath8"><g
         id="g9"><rect
           width="256"
           height="256"
           fill="#ffffff"
           id="rect8"
           x="0"
           y="0" /></g></clipPath><clipPath
       clipPathUnits="userSpaceOnUse"
       id="clipPath9"><g
         id="g10"><rect
           width="256"
           height="256"
           fill="#ffffff"
           id="rect9"
           x="0"
           y="0" /></g></clipPath><clipPath
       clipPathUnits="userSpaceOnUse"
       id="clipPath10"><g
         id="g11"><rect
           width="256"
           height="256"
           fill="#ffffff"
           id="rect10"
           x="0"
           y="0" /></g></clipPath><clipPath
       clipPathUnits="userSpaceOnUse"
       id="clipPath11"><g
         id="g12"><rect
           width="256"
           height="256"
           fill="#ffffff"
           id="rect11"
           x="0"
           y="0" /></g></clipPath></defs><path
     id="path2"
     style="overflow:visible;fill:#eeaaff;fill-opacity:0.98688048;stroke-width:6.4;stroke-linecap:round"
     inkscape:transform-center-x="7.7733295"
     inkscape:transform-center-y="-5.8574911"
     transform="matrix(1.2141566,0.17544878,-0.17544878,1.2141566,206.97068,127.38305)"
     d="M 24.037139,73.004546 C 3.9117507,83.959551 -16.643898,72.67799 -37.923959,70.969005 -54.949891,84.06914 -70.47082,107.58433 -89.001754,110.26941 -103.05486,88.997286 -102.09945,70.192743 -107.1375,49.188773 c -17.48351,-11.740165 -35.29766,-14.386648 -52.45052,-35.220495 8.14983,-21.0167312 34.35891,-25.532243 52.76419,-36.946142 4.29455,-20.582803 -3.15172,-46.499797 16.897914,-59.936847 15.401295,-7.842758 34.846225,26.038026 51.679237,37.990193 20.1298,-0.101088 55.462252,-14.503058 63.023449,0.686197 0.619387,19.509554 -13.130239,38.130887 -21.4952975,57.238458 6.4381758,19.4066 29.2711925,48.936048 20.7556665,60.004409 z"
     sodipodi:nodetypes="ccccccccccc" /><path
     style="fill:#161616;stroke:none"
     d="m 114.25546,4.6306225 c -2.10986,0.2769992 -4.1618,0.6297762 -6.1475,1.4537138 -3.49789,1.4514167 -6.65163,4.0070627 -8.599845,7.2751697 -2.305065,3.866718 -3.409042,8.576425 -4.911104,12.796823 -3.599497,10.113605 -7.141778,20.247517 -10.741268,30.361091 -1.917952,5.388935 -3.254002,11.745644 -6.40296,16.560594 -4.094189,6.260257 -11.093685,8.06785 -17.646554,10.68909 -12.627786,5.051289 -25.275612,10.146102 -38.014094,14.910851 -3.480035,1.301684 -7.132143,2.553445 -10.036724,4.944785 -4.8793284,4.01718 -7.1303838,10.7087 -6.3626908,16.8788 1.1256588,9.04714 8.6179848,13.47818 15.2702838,18.55342 8.911758,6.79904 17.769264,13.67344 26.722778,20.41738 4.929985,3.71338 11.124839,7.28539 14.13815,12.84378 1.940488,3.57946 2.162729,7.20938 2.433671,11.16586 0.240405,3.51055 0.386883,7.02793 0.627296,10.53856 0.907617,13.25345 2.049016,26.61525 2.374334,39.89598 0.259448,10.59156 9.161849,19.97318 20.197069,18.92301 6.952418,-0.66162 12.12713,-5.30875 17.689728,-9.09403 9.02339,-6.14033 18.02699,-12.32444 26.9737,-18.57598 2.49709,-1.74485 5.01932,-3.45339 7.52754,-5.18214 2.58689,-1.78299 5.09143,-3.58554 8.15484,-4.45971 6.37772,-1.81994 12.66144,0.74389 18.81886,2.28324 12.23846,3.05961 24.39549,6.4435 36.63404,9.50313 4.07803,1.01952 8.194,2.52324 12.42045,2.70831 3.98883,0.17467 8.13232,-1.38008 11.29131,-3.74566 1.38103,-1.03418 2.6526,-2.28871 3.71043,-3.65149 2.49932,-3.21979 4.11787,-7.55217 3.93764,-11.66769 -0.21399,-4.88668 -2.20247,-9.78409 -3.63029,-14.42779 -3.09019,-10.05023 -5.97947,-20.16443 -9.00101,-30.23563 -1.72771,-5.75867 -4.37852,-11.91334 -4.79135,-17.94065 -0.49767,-7.26613 4.61472,-13.32529 8.3077,-19.06977 7.76002,-12.07084 15.44985,-24.18675 23.20992,-36.257667 1.4324,-2.228108 2.81275,-4.455971 3.54606,-7.025706 1.91622,-6.715107 -0.40738,-14.004444 -5.34111,-18.81702 -6.03867,-5.890373 -14.35083,-4.958144 -22.08079,-5.147497 -7.35749,-0.180225 -14.72336,-0.443395 -22.0808,-0.62362 -5.05511,-0.12382 -10.1383,-0.02164 -15.18054,-0.366989 -6.02591,-0.412719 -12.04259,0.514257 -17.43881,-2.903461 -5.15298,-3.263651 -8.78016,-9.009375 -12.59914,-13.668359 -7.27889,-8.879934 -14.5591,-17.76189 -21.89193,-26.597319 -2.4658,-2.971061 -4.75078,-6.317166 -7.66317,-8.8716791 -3.49037,-3.061449 -8.74328,-4.9882684 -13.42412,-4.3737304 m -0.25092,9.7702155 c 4.74666,-0.678217 7.45248,2.415179 10.21407,5.733457 1.90408,2.287912 3.79281,4.590588 5.67044,6.900248 6.59269,8.109629 13.32742,16.103968 19.92011,24.213597 4.34784,5.348228 8.48433,11.465597 14.379,15.218786 7.24993,4.616087 14.8813,4.249435 23.08447,4.608675 10.69645,0.468434 21.42107,0.399931 32.11752,0.868351 3.7849,0.165752 7.63225,0.255849 11.41677,0.255849 3.40977,0 6.92746,-0.06267 9.5344,2.511019 2.48991,2.458167 2.99668,6.23442 1.69999,9.407591 -1.02885,2.517757 -2.93374,4.879793 -4.41643,7.151166 -2.522,3.863532 -5.03458,7.748689 -7.46936,11.667693 -4.74185,7.63242 -9.72132,15.12108 -14.53582,22.70809 -2.1401,3.37248 -4.5558,6.64634 -6.22755,10.28764 -2.34963,5.11785 -3.04543,10.90034 -2.11694,16.43513 0.91721,5.46758 3.03188,10.88114 4.62252,16.18422 2.99583,9.98786 5.99822,19.9766 8.92571,29.98471 0.71049,2.42891 1.44265,4.85264 2.16989,7.27663 1.11251,3.70818 2.24956,7.50237 -0.34629,10.91494 -3.58503,4.71298 -8.98756,3.07598 -13.79546,1.7754 -2.54187,-0.68759 -5.09845,-1.34066 -7.653,-1.97947 -10.5566,-2.63985 -21.11147,-5.3792 -31.61568,-8.22066 -8.15721,-2.2066 -16.15106,-4.78161 -24.58997,-2.47114 -6.38592,1.74838 -11.57876,6.07044 -16.93698,9.76355 -8.60772,5.93278 -17.17589,11.93373 -25.84456,17.77694 -3.241269,2.1848 -6.418896,4.4644 -9.660348,6.64933 -1.816377,1.22435 -3.633267,2.6793 -5.896576,2.90559 -0.997278,0.0997 -2.161205,0.11298 -3.136476,-0.12042 -7.64752,-1.83026 -6.753341,-11.18959 -7.020768,-17.29699 -0.52196,-11.92028 -1.31137,-23.85264 -2.126517,-35.75583 -0.542451,-7.9211 -0.364593,-15.53144 -4.315167,-22.70809 -3.507034,-6.3709 -9.841334,-10.46762 -15.51859,-14.72557 -8.374897,-6.28116 -16.673798,-12.67715 -24.966351,-19.06667 -3.042939,-2.34462 -6.104423,-4.66642 -9.158511,-6.99647 -2.474943,-1.88821 -4.97716,-3.80705 -5.373442,-7.13664 -0.374406,-3.14578 0.771495,-6.12848 3.366097,-8.03886 2.054114,-1.51243 4.801902,-2.1903 7.151166,-3.127 4.630193,-1.84616 9.266993,-3.69467 13.925955,-5.46695 8.058937,-3.065628 16.062997,-6.283947 24.088138,-9.437223 4.045335,-1.589511 8.364598,-2.903875 12.169529,-5.026495 4.924826,-2.747372 9.062012,-7.041588 11.635163,-12.06139 2.671342,-5.211374 4.181392,-11.178964 6.141398,-16.686053 3.477875,-9.77187 7.07678,-19.52118 10.36808,-29.357418 0.64755,-1.935227 1.37857,-3.843363 2.04782,-5.771116 1.46723,-4.226356 2.90662,-9.010018 8.07255,-9.748147 M 172.343,112.40042 c -1.3602,0.19531 -2.59458,0.69459 -3.76377,1.40174 -1.09426,0.66183 -2.01799,1.51133 -2.75477,2.55923 -4.92081,6.99869 0.99698,16.82776 9.52956,15.54007 1.32589,-0.2001 2.62981,-0.67985 3.76377,-1.39195 1.09136,-0.68533 2.01894,-1.54813 2.75517,-2.60589 4.88811,-7.02278 -0.99438,-16.72878 -9.52996,-15.5032 m -78.913745,13.92557 c -1.836393,0.24997 -3.513535,0.83419 -5.018362,1.94452 -7.914296,5.8395 -2.467793,18.84464 7.151166,17.6633 1.452305,-0.17837 2.913431,-0.6442 4.140149,-1.44917 6.979222,-4.57968 5.565842,-15.75121 -2.760099,-17.88208 -1.14316,-0.29257 -2.3364,-0.4367 -3.512854,-0.27657 m 51.061835,14.30407 c -1.78847,0.28139 -3.38945,1.34666 -4.05148,3.0814 -0.69835,1.82992 -0.32937,3.9957 -2.72331,4.65099 -2.55208,0.69857 -3.19086,-1.91261 -4.44974,-3.39147 -1.80329,-2.11838 -5.20397,-2.13936 -7.20662,-0.32613 -2.40011,2.1731 -1.65586,5.44799 -0.0935,7.84874 2.58896,3.97824 7.4516,6.56032 12.25171,5.98622 5.40855,-0.64689 9.74334,-4.15049 11.37322,-9.37361 1.14329,-3.6638 -0.0888,-9.26464 -5.10027,-8.47614 z"
     id="path1" /></svg>
