<?xml version="1.0" encoding="UTF-8" standalone="no"?>
<svg
   width="16"
   height="16"
   viewBox="0 0 102.4 102.4"
   fill="none"
   version="1.1"
   id="svg5"
   sodipodi:docname="gleam.svg"
   xml:space="preserve"
   inkscape:version="1.3.2 (091e20e, 2023-11-25, custom)"
   xmlns:inkscape="http://www.inkscape.org/namespaces/inkscape"
   xmlns:sodipodi="http://sodipodi.sourceforge.net/DTD/sodipodi-0.dtd"
   xmlns="http://www.w3.org/2000/svg"
   xmlns:svg="http://www.w3.org/2000/svg"><sodipodi:namedview
     id="namedview1"
     pagecolor="#ffffff"
     bordercolor="#111111"
     borderopacity="1"
     inkscape:showpageshadow="0"
     inkscape:pageopacity="0"
     inkscape:pagecheckerboard="1"
     inkscape:deskcolor="#d1d1d1"
     inkscape:zoom="21.16017"
     inkscape:cx="23.156714"
     inkscape:cy="23.133084"
     inkscape:window-width="2560"
     inkscape:window-height="1411"
     inkscape:window-x="-9"
     inkscape:window-y="-9"
     inkscape:window-maximized="1"
     inkscape:current-layer="svg5" /><defs
     id="defs5"><clipPath
       clipPathUnits="userSpaceOnUse"
       id="clipPath6"><g
         id="g7"><rect
           width="256"
           height="256"
           fill="#ffffff"
           id="rect6"
           x="0"
           y="0" /></g></clipPath><clipPath
       clipPathUnits="userSpaceOnUse"
       id="clipPath8"><g
         id="g9"><rect
           width="256"
           height="256"
           fill="#ffffff"
           id="rect8"
           x="0"
           y="0" /></g></clipPath><clipPath
       clipPathUnits="userSpaceOnUse"
       id="clipPath9"><g
         id="g10"><rect
           width="256"
           height="256"
           fill="#ffffff"
           id="rect9"
           x="0"
           y="0" /></g></clipPath><clipPath
       clipPathUnits="userSpaceOnUse"
       id="clipPath10"><g
         id="g11"><rect
           width="256"
           height="256"
           fill="#ffffff"
           id="rect10"
           x="0"
           y="0" /></g></clipPath><clipPath
       clipPathUnits="userSpaceOnUse"
       id="clipPath11"><g
         id="g12"><rect
           width="256"
           height="256"
           fill="#ffffff"
           id="rect11"
           x="0"
           y="0" /></g></clipPath></defs><path
     id="path2"
     style="overflow:visible;fill:#eeaaff;fill-opacity:0.98688;stroke-width:3.03183;stroke-linecap:round"
     inkscape:transform-center-x="3.001714"
     inkscape:transform-center-y="-2.2619035"
     d="M 87.954282,86.911692 C 77.776225,90.684466 68.902976,84.002424 59.041535,81.759424 50.171332,86.74795 41.301131,96.72156 32.430928,96.72499 27.283281,85.799391 29.005245,77.047552 28.066169,66.858443 20.664372,60.169513 12.491453,57.721782 5.8607829,46.791653 11.105751,37.490048 23.699889,37.148614 33.10256,33.044138 36.510569,23.684785 34.775251,11.029031 45.085951,6.0874001 52.83825,3.4537436 59.659623,20.65626 66.742069,27.400516 c 9.444771,1.316409 26.986244,-3.042208 29.50225,4.591597 -1.031386,9.18908 -8.739537,16.988206 -13.956068,25.380113 1.703752,9.535035 10.408442,24.926959 5.666031,29.539466 z"
     sodipodi:nodetypes="ccccccccccc" /><path
     style="fill:#161616;stroke:none;stroke-width:0.386156"
     d="m 45.828003,3.6532339 c -0.814733,0.1069648 -1.607101,0.2431916 -2.37389,0.5613595 -1.35073,0.5604725 -2.568563,1.547349 -3.320877,2.8093463 -0.890113,1.4931541 -1.31642,3.3118333 -1.896449,4.9415623 -1.389966,3.905424 -2.757837,7.818689 -4.147799,11.724101 -0.740628,2.080966 -1.256551,4.535644 -2.472538,6.394963 -1.580994,2.417432 -4.283887,3.115444 -6.814313,4.12765 -4.876288,1.950582 -9.760315,3.917972 -14.679349,5.757906 -1.3438339,0.502653 -2.7541157,0.986027 -3.8757354,1.909455 -1.8841791,1.551257 -2.7534364,4.135223 -2.4569875,6.517841 0.4346792,3.493603 3.3278815,5.204672 5.896703,7.164503 3.4413239,2.625487 6.8616979,5.280073 10.3191459,7.884283 1.90374,1.433942 4.295917,2.813293 5.459523,4.959696 0.74933,1.382227 0.83515,2.783941 0.939776,4.311756 0.09283,1.355618 0.149396,2.713874 0.242234,4.069523 0.350481,5.117891 0.791238,10.277623 0.916862,15.406042 0.100186,4.089994 3.537897,7.712755 7.799208,7.307224 2.684714,-0.255488 4.682956,-2.049998 6.830984,-3.511707 3.484431,-2.371122 6.96122,-4.759151 10.41604,-7.173211 0.964265,-0.673783 1.938238,-1.333545 2.906801,-2.001112 0.998942,-0.688511 1.966083,-1.384575 3.149035,-1.722141 2.462792,-0.70278 4.889284,0.287257 7.267006,0.881686 4.725948,1.181484 9.42045,2.488192 14.146433,3.669681 1.574754,0.393701 3.164157,0.97436 4.796224,1.04583 1.540309,0.06743 3.14034,-0.532919 4.360201,-1.446404 0.533293,-0.399355 1.024319,-0.883799 1.432798,-1.410043 0.965129,-1.24334 1.590138,-2.916312 1.52054,-4.505543 -0.08264,-1.887017 -0.850492,-3.778178 -1.401852,-5.571369 -1.19329,-3.88095 -2.309003,-7.786604 -3.475788,-11.675653 -0.667164,-2.223741 -1.690789,-4.6004 -1.850206,-6.927879 -0.192177,-2.805855 1.781999,-5.145633 3.208064,-7.363895 2.996572,-4.661221 5.966038,-9.339845 8.962628,-14.001095 0.553134,-0.860396 1.086166,-1.720698 1.369336,-2.713014 0.739961,-2.593075 -0.157317,-5.407893 -2.062502,-7.266294 -2.331862,-2.274601 -5.541647,-1.914615 -8.52661,-1.987735 -2.841135,-0.0696 -5.685506,-0.171219 -8.526621,-0.240814 -1.952059,-0.04781 -3.91496,-0.0084 -5.862048,-0.141715 -2.326938,-0.159373 -4.650312,0.198583 -6.734092,-1.121187 C 65.300037,23.056554 63.899382,20.837812 62.424663,19.03872 59.613879,15.609685 56.802587,12.17987 53.970975,8.7680208 53.018792,7.6207294 52.136436,6.3286128 51.0118,5.3421737 49.663975,4.1599785 47.635535,3.4159268 45.828003,3.6532339 m -0.09689,3.7728218 c 1.832948,-0.2618972 2.877815,0.9326345 3.944218,2.2140053 0.735271,0.88349 1.464614,1.772681 2.189671,2.664568 2.545803,3.131578 5.146455,6.218635 7.692259,9.350212 1.678941,2.065248 3.27627,4.427503 5.552528,5.876818 2.7996,1.782526 5.746495,1.640941 8.914194,1.779665 4.130492,0.180887 8.271862,0.154435 12.402354,0.335318 1.46156,0.06401 2.947238,0.0988 4.408646,0.0988 1.316699,0 2.67507,-0.0242 3.681762,0.969644 0.961492,0.949235 1.157177,2.407455 0.656455,3.632792 -0.397294,0.972245 -1.132879,1.884359 -1.705431,2.761462 -0.973879,1.491923 -1.94413,2.992198 -2.884331,4.505542 -1.831085,2.947301 -3.753935,5.839088 -5.61308,8.768853 -0.826412,1.302301 -1.759247,2.56652 -2.404803,3.972628 -0.907322,1.976286 -1.176008,4.209226 -0.817467,6.346514 0.354185,2.111337 1.170777,4.201812 1.785011,6.249625 1.156856,3.856866 2.316245,7.714073 3.446712,11.578758 0.274359,0.937938 0.557086,1.873874 0.837914,2.80991 0.429602,1.431934 0.86868,2.897082 -0.133722,4.214864 -1.384379,1.819943 -3.470595,1.187807 -5.327192,0.68558 -0.981557,-0.265516 -1.968794,-0.517703 -2.955247,-0.764383 -4.076489,-1.019392 -8.152309,-2.077207 -12.208566,-3.174452 -3.149952,-0.852091 -6.23682,-1.846445 -9.49555,-0.954245 -2.465958,0.675147 -4.471202,2.344134 -6.540308,3.770249 -3.323918,2.290975 -6.632563,4.608277 -9.980017,6.864659 -1.251633,0.843668 -2.478692,1.723949 -3.730396,2.567671 -0.701403,0.472788 -1.403006,1.034627 -2.276995,1.122013 -0.385104,0.03853 -0.83456,0.04366 -1.211166,-0.04654 -2.953132,-0.70676 -2.60784,-4.320914 -2.711108,-6.679319 C 31.045897,84.344218 30.741062,79.736472 30.426289,75.13999 30.216818,72.081214 30.285499,69.14244 28.759963,66.371138 27.405704,63.91098 24.959679,62.32901 22.767376,60.684779 19.533364,58.259276 16.328698,55.789429 13.126484,53.322081 11.951436,52.416694 10.769227,51.520117 9.5898744,50.620356 8.6341623,49.891214 7.6679173,49.150243 7.5148909,47.864504 c -0.144579,-1.21476 0.297917,-2.366546 1.2998369,-3.104249 0.7932072,-0.584033 1.8542802,-0.845797 2.7614612,-1.207508 1.787974,-0.712905 3.5785,-1.426717 5.377584,-2.111093 3.112001,-1.183809 6.202813,-2.42658 9.301764,-3.644235 1.562129,-0.613798 3.230036,-1.121347 4.69933,-1.941008 1.901749,-1.060913 3.499346,-2.719147 4.492982,-4.657571 1.031553,-2.0124 1.614667,-4.316818 2.371534,-6.44341 1.343,-3.773461 2.732737,-7.53821 4.00369,-11.336527 0.250055,-0.747298 0.532343,-1.484135 0.790777,-2.228547 0.566578,-1.6320304 1.122407,-3.4792678 3.11726,-3.7643003 M 68.258822,45.269127 c -0.525248,0.07542 -1.001911,0.26822 -1.4534,0.541289 -0.422554,0.255569 -0.779258,0.583608 -1.06377,0.98826 -1.900197,2.702582 0.38499,6.498131 3.679892,6.000883 0.511999,-0.07727 1.015515,-0.262528 1.4534,-0.537509 0.421435,-0.264644 0.779624,-0.597819 1.063924,-1.006279 1.88757,-2.711885 -0.383986,-6.459909 -3.680046,-5.986644 M 37.785851,50.64656 c -0.709133,0.09653 -1.356771,0.322128 -1.937868,0.750888 -3.056148,2.254954 -0.952951,7.27696 2.761462,6.820779 0.560816,-0.06888 1.125037,-0.248762 1.598741,-0.559605 2.695064,-1.768468 2.14928,-6.082415 -1.065827,-6.905263 -0.441438,-0.112977 -0.902214,-0.168633 -1.356508,-0.106799 m 19.717804,5.523595 c -0.690626,0.10866 -1.308854,0.52002 -1.5645,1.1899 -0.269672,0.706633 -0.127189,1.542961 -1.051621,1.796005 -0.9855,0.269756 -1.232168,-0.738565 -1.718292,-1.309635 -0.696349,-0.818024 -2.009541,-0.826125 -2.782875,-0.125937 -0.926815,0.839154 -0.639419,2.103771 -0.03611,3.030833 0.999741,1.53622 2.877475,2.533304 4.731064,2.311612 2.088541,-0.2498 3.762444,-1.602734 4.391831,-3.619671 0.441488,-1.414796 -0.03429,-3.57759 -1.969498,-3.273107 z"
     id="path1" /></svg>
